<svg width="24" height="24" viewBox="0 0 24 24" fill="none" xmlns="http://www.w3.org/2000/svg"><path fill-rule="evenodd" clip-rule="evenodd" d="M12 2.97169C11.0149 2.97169 10.0641 3.36275 9.35841 4.06842C8.6518 4.77504 8.25 5.73911 8.25 6.74988V7.52808H15.75V6.74988C15.75 5.73911 15.3482 4.77504 14.6416 4.06842C13.9359 3.36275 12.9851 2.97169 12 2.97169ZM17.25 7.52808V6.74988C17.25 5.37371 16.7036 4.04859 15.7224 3.06738C14.7402 2.08522 13.4019 1.52808 12 1.52808C10.5981 1.52808 9.25978 2.08522 8.27763 3.06738C7.29641 4.04859 6.75 5.37371 6.75 6.74988V7.52808H3.75C3.3427 7.52808 2.95817 7.69013 2.67928 7.96903C2.40133 8.24698 2.25 8.61827 2.25 8.99988V19.1249C2.25 20.9147 3.76646 22.4717 5.625 22.4717H18.375C20.2118 22.4717 21.75 20.9947 21.75 19.1835V8.99988C21.75 8.61827 21.5987 8.24698 21.3207 7.96903C21.0418 7.69013 20.6573 7.52808 20.25 7.52808H17.25ZM3.75864 8.97168C3.75511 8.97613 3.75 8.98573 3.75 8.99988V19.1249C3.75 20.1701 4.64854 21.0281 5.625 21.0281H18.375C19.3732 21.0281 20.25 20.2073 20.25 19.1835V8.99988C20.25 8.98573 20.2449 8.97613 20.2414 8.97168H3.75864Z" fill="black"></path><path fill-rule="evenodd" clip-rule="evenodd" d="M7.5 9.77808C7.91421 9.77808 8.25 10.1012 8.25 10.4999V11.2499C8.25 12.2607 8.6518 13.2247 9.35841 13.9313C10.0641 14.637 11.0149 15.0281 12 15.0281C12.9851 15.0281 13.9359 14.637 14.6416 13.9313C15.3482 13.2247 15.75 12.2607 15.75 11.2499V10.4999C15.75 10.1012 16.0858 9.77808 16.5 9.77808C16.9142 9.77808 17.25 10.1012 17.25 10.4999V11.2499C17.25 12.6261 16.7036 13.9512 15.7224 14.9324C14.7402 15.9145 13.4019 16.4717 12 16.4717C10.5981 16.4717 9.25979 15.9145 8.27763 14.9324C7.29641 13.9512 6.75 12.6261 6.75 11.2499V10.4999C6.75 10.1012 7.08579 9.77808 7.5 9.77808Z" fill="black"></path></svg>