<svg width="26" height="26" viewBox="0 0 26 26" fill="none" xmlns="http://www.w3.org/2000/svg"><path fill-rule="evenodd" clip-rule="evenodd" d="M5.27894 2.4375L5.28125 2.4375H20.7188L20.7211 2.4375C21.6893 2.44026 22.6171 2.82611 23.3017 3.51076C23.9864 4.19541 24.3722 5.1232 24.375 6.09144L24.375 6.09375V15.8438L24.375 15.8461C24.3722 16.8143 23.9864 17.7421 23.3017 18.4267C22.6171 19.1114 21.6893 19.4972 20.7211 19.5L20.7188 19.5H12.4793L7.83281 23.3741C7.59064 23.576 7.25352 23.6195 6.96797 23.4858C6.68242 23.3521 6.5 23.0653 6.5 22.75V19.5H5.28125L5.27894 19.5C4.3107 19.4972 3.38291 19.1114 2.69826 18.4267C2.01361 17.7421 1.62776 16.8143 1.625 15.8461L1.625 15.8438V6.09375L1.625 6.09144C1.62776 5.1232 2.01361 4.19541 2.69826 3.51076C3.38291 2.82611 4.3107 2.44026 5.27894 2.4375ZM12.5926 19.4055C12.5924 19.4057 12.5922 19.4058 12.592 19.406L12.5926 19.4055ZM5.2825 4.0625C4.74402 4.06431 4.22809 4.27902 3.84731 4.65981C3.46652 5.04059 3.25181 5.55652 3.25 6.095V15.8425C3.25181 16.381 3.46652 16.8969 3.84731 17.2777C4.22811 17.6585 4.74406 17.8732 5.28256 17.875H7.3125C7.76123 17.875 8.125 18.2388 8.125 18.6875V21.0147L11.5509 18.1584C11.551 18.1582 11.5512 18.1581 11.5514 18.1579C11.7705 17.9751 12.0469 17.875 12.3322 17.875C12.3323 17.875 12.3323 17.875 12.3324 17.875H20.7174C21.2559 17.8732 21.7719 17.6585 22.1527 17.2777C22.5335 16.8969 22.7482 16.3809 22.75 15.8424V6.09506C22.7482 5.55656 22.5335 5.04061 22.1527 4.65981C21.7719 4.27902 21.256 4.06431 20.7175 4.0625H5.2825Z" fill="white"></path><path d="M8.125 12.5938C9.02246 12.5938 9.75 11.8662 9.75 10.9688C9.75 10.0713 9.02246 9.34375 8.125 9.34375C7.22754 9.34375 6.5 10.0713 6.5 10.9688C6.5 11.8662 7.22754 12.5938 8.125 12.5938Z" fill="white"></path><path d="M13 12.5938C13.8975 12.5938 14.625 11.8662 14.625 10.9688C14.625 10.0713 13.8975 9.34375 13 9.34375C12.1025 9.34375 11.375 10.0713 11.375 10.9688C11.375 11.8662 12.1025 12.5938 13 12.5938Z" fill="white"></path><path d="M17.875 12.5938C18.7725 12.5938 19.5 11.8662 19.5 10.9688C19.5 10.0713 18.7725 9.34375 17.875 9.34375C16.9775 9.34375 16.25 10.0713 16.25 10.9688C16.25 11.8662 16.9775 12.5938 17.875 12.5938Z" fill="white"></path></svg>